# xmcd
#
# Track frame offsets: 
#        150
#        11531
#        26371
#        43219
#        55358
#        67737
#        82958
#        96487
#        113337
#        122548
#        139209
#
# Disc length: 2120 seconds
#
# Revision: 0
# Processed by: cddbd v1.5PL3 Copyright (c) Steve Scherf et al.
# Submitted via: ExactAudioCopy v0.95a3
#
DISCID=8608460b
DTITLE=Various Artist - Holy Cow Christmas
DYEAR=2003
DGENRE=Other
TTITLE0=Silent Night
TTITLE1=Little Drummer Boy
TTITLE2=Here Comes Santa Claus
TTITLE3=What Child Is This
TTITLE4=Santa Santa
TTITLE5=Coventry Carol
TTITLE6=Santa Claus Is Coming To Town
TTITLE7=I'll Be Home For Christmas
TTITLE8=I Know A Man
TTITLE9=Pretty Paper
TTITLE10=You're A Mean One Mr. Grinch
EXTD=
EXTT0=
EXTT1=
EXTT2=
EXTT3=
EXTT4=
EXTT5=
EXTT6=
EXTT7=
EXTT8=
EXTT9=
EXTT10=
PLAYORDER=
